<svg width="242" height="27" viewBox="0 0 242 27" fill="none" xmlns="http://www.w3.org/2000/svg">
<path d="M0.44 26V0.799998H8.864V18.8H20.708V26H0.44ZM34.2519 26.54C30.3639 26.54 27.0999 25.28 24.4599 22.76C21.8439 20.24 20.5359 17.144 20.5359 13.472V13.4C20.5359 9.728 21.8679 6.62 24.5319 4.076C27.1959 1.532 30.4599 0.259999 34.3239 0.259999C38.2119 0.259999 41.4639 1.52 44.0799 4.04C46.7199 6.56 48.0399 9.656 48.0399 13.328V13.4C48.0399 17.072 46.7079 20.18 44.0439 22.724C41.3799 25.268 38.1159 26.54 34.2519 26.54ZM30.5079 17.432C31.4919 18.536 32.7639 19.088 34.3239 19.088C35.8839 19.088 37.1439 18.536 38.1039 17.432C39.0639 16.328 39.5439 15.008 39.5439 13.472V13.4C39.5439 11.84 39.0519 10.508 38.0679 9.404C37.0839 8.276 35.8119 7.712 34.2519 7.712C32.6919 7.712 31.4319 8.264 30.4719 9.368C29.5119 10.472 29.0319 11.792 29.0319 13.328V13.4C29.0319 14.96 29.5239 16.304 30.5079 17.432ZM50.3267 26V0.799998H62.6387C66.7667 0.799998 69.7907 1.76 71.7107 3.68C73.2467 5.216 74.0147 7.208 74.0147 9.656V9.728C74.0147 13.256 72.3587 15.824 69.0467 17.432L74.9147 26H65.3027L60.5507 18.8H58.7507V26H50.3267ZM58.7507 12.788H62.3867C63.3947 12.788 64.1867 12.572 64.7627 12.14C65.3387 11.708 65.6267 11.108 65.6267 10.34V10.268C65.6267 8.66 64.5587 7.856 62.4227 7.856H58.7507V12.788ZM76.0611 26V0.799998H97.5531V7.712H84.3411V10.268H96.6531V16.352H84.3411V19.088H97.7331V26H76.0611ZM100.003 26V0.799998H108.787L114.187 9.656L119.587 0.799998H128.371V26H119.983V13.508L114.187 22.472H114.043L108.247 13.508V26H100.003ZM133.812 26V0.799998H135.684V26H133.812ZM143.439 26V0.799998H152.583C155.391 0.799998 157.647 1.484 159.351 2.852C161.079 4.22 161.943 6.104 161.943 8.504V8.576C161.943 11.12 161.007 13.1 159.135 14.516C157.263 15.908 154.923 16.604 152.115 16.604H145.311V26H143.439ZM145.311 14.876H152.223C154.575 14.876 156.471 14.312 157.911 13.184C159.351 12.056 160.071 10.556 160.071 8.684V8.612C160.071 6.668 159.375 5.168 157.983 4.112C156.591 3.056 154.743 2.528 152.439 2.528H145.311V14.876ZM176.018 26.36C172.25 26.36 168.866 25.016 165.866 22.328L167.09 20.924C168.506 22.244 169.91 23.204 171.302 23.804C172.694 24.38 174.302 24.668 176.126 24.668C177.998 24.668 179.522 24.2 180.698 23.264C181.898 22.304 182.498 21.104 182.498 19.664V19.592C182.498 18.2 181.994 17.096 180.986 16.28C180.002 15.464 178.13 14.78 175.37 14.228C172.322 13.604 170.138 12.752 168.818 11.672C167.522 10.568 166.874 9.056 166.874 7.136V7.064C166.874 5.192 167.642 3.62 169.178 2.348C170.714 1.076 172.646 0.439999 174.974 0.439999C176.75 0.439999 178.298 0.691999 179.618 1.196C180.962 1.676 182.294 2.444 183.614 3.5L182.426 4.976C180.194 3.08 177.686 2.132 174.902 2.132C173.078 2.132 171.59 2.6 170.438 3.536C169.31 4.448 168.746 5.564 168.746 6.884V6.956C168.746 8.372 169.25 9.5 170.258 10.34C171.29 11.156 173.234 11.864 176.09 12.464C179.018 13.064 181.13 13.916 182.426 15.02C183.722 16.1 184.37 17.564 184.37 19.412V19.484C184.37 21.5 183.59 23.156 182.03 24.452C180.47 25.724 178.466 26.36 176.018 26.36ZM200.45 26.396C197.354 26.396 194.858 25.448 192.962 23.552C191.066 21.656 190.118 18.98 190.118 15.524V0.799998H191.99V15.344C191.99 18.344 192.734 20.66 194.222 22.292C195.734 23.9 197.834 24.704 200.522 24.704C203.114 24.704 205.154 23.924 206.642 22.364C208.154 20.78 208.91 18.5 208.91 15.524V0.799998H210.782V15.308C210.782 18.836 209.846 21.572 207.974 23.516C206.102 25.436 203.594 26.396 200.45 26.396ZM217.865 26V0.799998H219.629L229.745 15.704L239.861 0.799998H241.625V26H239.753V4.112L229.781 18.62H229.637L219.665 4.112V26H217.865Z" fill="#E7E7E7"/>
</svg>
